<svg xmlns="http://www.w3.org/2000/svg" viewBox="0 0 100 100">
  <defs>
    <linearGradient id="g" x1="0%" y1="0%" x2="100%" y2="100%">
      <stop offset="0%" style="stop-color:#e0e0e0"/>
      <stop offset="100%" style="stop-color:#c0c0c0"/>
    </linearGradient>
  </defs>
  <!-- large star -->
  <path d="M62 18 C64 40, 80 48, 95 50 C80 52, 64 60, 62 82 C60 60, 44 52, 30 50 C44 48, 60 40, 62 18Z" fill="url(#g)"/>
  <!-- small top-left star -->
  <path d="M28 5 C29 16, 36 20, 44 21 C36 22, 29 26, 28 37 C27 26, 20 22, 12 21 C20 20, 27 16, 28 5Z" fill="url(#g)"/>
  <!-- small bottom-left star -->
  <path d="M20 58 C21 67, 27 70, 34 71 C27 72, 21 75, 20 84 C19 75, 13 72, 6 71 C13 70, 19 67, 20 58Z" fill="url(#g)"/>
</svg>
